<svg width="0" height="0" class="hidden">
    <symbol fill="none" xmlns="http://www.w3.org/2000/svg" viewBox="0 0 139 52" id="logo">
    <path fill-rule="evenodd" clip-rule="evenodd" d="M27.7 17.555c5.16-2.47 9.847-5.45 12.585-10.705C34.89 9 30.935 12.87 27.7 17.555zm9.585 6.885c-.07-.081-.138-.163-.207-.245l-.207-.245c-.61.386-1.24.75-1.87 1.113-1.396.806-2.793 1.612-3.976 2.662-3.173 2.814-6.19 5.83-9.048 8.968-1.055 1.158-2.208 3.034-.707 4.525 1.348 1.338 3.089.323 4.344-.6 2.074-1.527 4.178-3.11 5.892-5.013 2.87-3.185 5.027-6.85 5.779-11.165zM28.97 12.986c.662-.546 1.304-1.087 1.936-1.62 1.47-1.238 2.884-2.43 4.369-3.53 1.264-.936 2.69-1.735 4.16-2.276.782-.287 2.025-.2 2.684.262 1.189.83.5 2.16-.192 2.879-1.761 1.829-3.632 3.552-5.502 5.274l-1.373 1.267c-.31.288-.662.53-1.096.828a33.31 33.31 0 00-.755.528c2.717.657 4.944 1.495 5.71 4.243.048.179 1.135.232 1.666.082a214.78 214.78 0 004.26-1.263c1.544-.47 3.088-.94 4.643-1.372 2.243-.622 3.223.12 3.626 2.335-.433.058-.904.07-1.375.082-1.044.027-2.088.054-2.722.58-1.399 1.163-2.479 2.733-3.544 4.281-.211.308-.422.614-.635.917-.202.286-.163.742-.124 1.199.018.21.036.42.03.614.192-.066.403-.114.615-.162.46-.105.92-.21 1.172-.499 1.094-1.257 2.117-2.576 3.189-3.96.406-.524.819-1.057 1.245-1.599 2.18 1.07 4.195.27 5.755-2.06l.024-.036c.273-.41.654-.98 1.009-.999.533-.029 1.076.11 1.619.25.223.056.447.114.67.16-.07.17-.124.354-.179.538-.119.4-.237.798-.494 1.061l-.535.543c-1.64 1.656-3.293 3.324-4.009 6.051.255-.11.49-.192.704-.266.404-.142.73-.256.957-.472 2.233-2.12 4.423-4.287 6.61-6.455.14-.139.258-.332.372-.52.175-.287.342-.561.566-.607.701-.142 1.631-.197 2.177.16.875.57.388.97-.095 1.368-.12.1-.241.198-.34.3-1.76 1.801-3.18 3.807-3.51 6.49 5.1-2.624 9.318-6.06 11.102-12.024l-16.225-.975-2.716-.164.019-.567c.353 0 .706 0 1.059.002.765 0 1.53.002 2.295-.003 1.456-.009 2.911-.02 4.367-.033 3.731-.031 7.462-.063 11.193-.036 1.248.01 1.737-.659 2.283-1.57 1.897-3.166 3.817-6.32 5.808-9.429C82.81.65 83.052.662 85.188 2.128l-2.84 3.919-.028.038-5.21 7.19c2.645-.164 4.615-.207 5.009 2.678a61.96 61.96 0 01-1.285-.147c-.996-.12-1.968-.238-2.94-.238-.732 0-1.863.191-2.134.679-1.502 2.697-2.904 5.45-4.413 8.41-.485.95-.98 1.923-1.493 2.922.378-.047.667-.065.889-.078.346-.021.53-.033.64-.13.717-.628 1.446-1.245 2.176-1.863 2.022-1.712 4.044-3.426 5.818-5.367 1.4-1.532 2.544-1.89 4.54-.972-2.744 2.327-4.875 4.954-5.744 8.572 3.037-.817 5.742-2.152 8.004-4.45 1.517-1.54 3.093-3.086 4.875-4.28 1.821-1.218 2.656-.755 3.943 1.663-3.973.26-6.32 2.618-8.08 5.703l.233.304.233.304.716-.582.002-.002c.563-.458 1.125-.916 1.696-1.365.239-.188.472-.39.706-.592.603-.521 1.207-1.044 1.906-1.325.506-.203 1.128-.115 1.75-.026.276.039.553.078.82.092-.018.24-.012.493-.007.746.013.548.025 1.097-.198 1.52a248.635 248.635 0 01-5.268 9.452c-2.997 5.132-5.755 10.373-7.61 16.066.008-4.717 1.982-8.832 3.941-12.916l.12-.25c1.37-2.857 2.847-5.663 4.324-8.47a581.602 581.602 0 001.938-3.703l-.201-.171-.407-.346c-.252.177-.507.35-.762.522-.584.395-1.168.79-1.715 1.232a11.4 11.4 0 00-.932.87c-.353.354-.706.707-1.104 1.001-.571.423-1.196.775-1.82 1.127-.27.153-.54.305-.807.464l-.537-1.868-.005-.017-.373-1.296c-.336.208-.678.438-1.03.675-.848.57-1.748 1.174-2.726 1.596-.73.316-1.554.41-2.379.504a19.27 19.27 0 00-1.089.144c-.006-.337-.016-.674-.026-1.011-.025-.842-.05-1.683-.018-2.522a2.95 2.95 0 01.093-.55c.073-.318.156-.674.105-1.136l-.896.805c-.936.84-1.871 1.68-2.81 2.516l-.132.119c-.206.189-.417.381-.66.499-.312.15-.66.358-1.01.567-.853.508-1.726 1.027-2.15.78-1.314-.762-.839-2.122-.406-3.363.059-.167.117-.332.169-.493.063-.195.085-.403.113-.662.014-.135.03-.284.054-.452-.553.428-1.087.852-1.61 1.268-1.246.992-2.432 1.936-3.692 2.767-.564.372-1.267.532-1.969.692a14.11 14.11 0 00-.943.238l-.15-.828a85.925 85.925 0 01-.354-2.034c-.03-.195-.024-.395-.016-.662.004-.145.01-.308.01-.501-.464.383-.906.761-1.338 1.13-1.044.892-2.026 1.73-3.08 2.464-.59.412-1.867.744-2.18.438-.526-.512-.828-1.62-.689-2.378.187-1.02.558-2.006.95-3.049.168-.445.34-.901.503-1.374-1.872-.21-3.195-.046-4.026 2.105-.813 2.107-2.336 3.97-4.644 4.67-.824.25-2.077.107-2.716-.395-.517-.406-.795-1.789-.508-2.441.765-1.743 1.676-3.422 2.632-5.183.367-.678.742-1.367 1.116-2.077-.554.22-1.107.43-1.655.639-1.41.536-2.793 1.061-4.11 1.722-.553.278-.96 1.237-1.08 1.945-1.406 8.176-5.525 14.527-12.625 18.774-1.453.869-3.263 1.383-4.956 1.541-2.619.246-3.994-1.684-3.335-4.231.963-3.73 3.174-6.747 6.027-9.098 2.338-1.926 4.842-3.648 7.347-5.37a216.94 216.94 0 003.627-2.53c.212-.152.48-.26.748-.37.734-.298 1.48-.6 1.135-1.8-.414-1.437-1.413-2.398-2.901-2.345-1.733.062-3.51.243-5.166.728-2.272.665-4.123 1.928-5.4 4.163-2.388 4.172-5.43 7.874-9.118 10.985-.824.694-1.737 1.371-2.725 1.748-.657.25-1.516-.034-2.24-.274l-.016-.005c8.375-5.928 13.637-13.87 16.882-23.25.614-1.776.825-3.813.712-5.699-.204-3.38-2.227-4.904-5.597-4.579-3.72.36-6.78 2.255-9.724 4.373-3.444 2.478-6.326 5.497-8.443 9.201-2.047 3.58-2.738 7.347-1.247 11.429-1.68-1.25-2.223-2.435-2.19-4.9.04-3.017.955-5.817 2.491-8.36 3.3-5.465 7.739-9.705 13.764-11.99a17.248 17.248 0 015.37-1.098c4.529-.17 7.616 2.978 7.591 7.512-.005.886-.073 1.772-.146 2.714-.035.45-.07.914-.1 1.397zm86.61 11.843l.13.176.108.147 1.046-.751 3.545-2.543-.251-.34-.001-.002-.124-.17c-2.096.331-3.519 1.575-4.58 3.31l.127.173zm-3.712 2.525c-.49.38-.95.759-1.395 1.125-1.01.832-1.946 1.601-2.987 2.187-.907.51-2.315.819-3.193.47-.394-.156-.52-.977-.645-1.791-.054-.351-.107-.7-.182-.995a3.646 3.646 0 01-.077-.497 6.522 6.522 0 00-.029-.256c-.464.327-.919.66-1.371.99-1.114.816-2.213 1.62-3.388 2.293-.686.392-1.97.594-2.484.217-.519-.379-.805-1.748-.522-2.398 1.157-2.662 2.436-5.295 3.94-7.78.93-1.537 2.054-.776 3.242.028l.288.194c-2.585 2.146-4.084 4.739-5.07 7.734 3.219-1.173 5.77-3.154 7.871-5.733.371-.455.71-.936 1.05-1.416.19-.27.381-.54.577-.806.766-1.037 1.657-1.056 2.57-.227.887.807.331 1.181-.21 1.544-.151.102-.301.203-.417.312-2.061 1.927-3.486 4.188-4.181 7.587 3.539-1.48 6.068-3.34 7.753-6.161 1.31-2.195 2.772-4.182 5.105-5.378 1.849-.947 3.606-.5 4.108 1.34.176.647-.111 1.416-.394 2.173-.126.338-.252.673-.334.994l2.953-.716c2.713-.658 5.55-1.347 8.392-2.017l.336-.08c1.118-.265 2.247-.533 3.383-.604.753-.046 1.534.342 2.254.843-8.036.573-15.573 2.686-22.88 5.69-2.256.928-2.519 3.121-.582 4.614.572.441 1.329.75 2.045.88.811.146 1.683.11 2.509.004 4.313-.554 8.925-3.775 11.258-7.435-.058.25-.101.509-.143.767-.092.555-.184 1.11-.429 1.587-2.345 4.579-9.349 7.79-14.422 6.685-2.726-.595-3.776-1.992-4.299-5.968zm-25.92-14.833c-.314.694-.63 1.389-.949 2.08l.546.368c.478-.516.955-1.032 1.432-1.55 1.18-1.278 2.36-2.556 3.556-3.815.75-.788.532-1.419-.208-1.918-.093-.063-.188-.135-.287-.209-.58-.435-1.24-.93-1.764.104-.82 1.62-1.572 3.28-2.325 4.94z" fill="#000"></path>
    </symbol>

    <symbol fill="none" xmlns="http://www.w3.org/2000/svg" viewBox="0 0 30 32" id="varnish">
    <path fill-rule="evenodd" clip-rule="evenodd" d="M16.652 13.676s1.321 1.094 1.111 2.553c-.197 1.367-1.9 2.445-3.648 2.8-1.747.353-4.4-.034-4.79-.158-.392-.124-1.009.37-1.059.952-.05.582 3.602 10.42 3.602 10.42s3.402.764 7.31-1.16c4.186-2.06 4.775-4.362 4.775-4.362l-3.746-10.63-1.15-.72-1.347-.263-1.058.568z" fill="#B0A7D2"></path>
    <path fill-rule="evenodd" clip-rule="evenodd" d="M10.093 22.033l-.314-.698s3.922-.28 5.748-.931c2.07-.737 4.081-2.53 4.081-2.53s1.703 4.995 1.795 5.345c.091.35-1.715 1.559-2.283 1.906-.569.347-2.817 1.717-4.688 1.808-1.87.092-2.74.101-2.74.101l-1.599-5.001z" fill="#fff"></path>
    <mask id="a" maskUnits="userSpaceOnUse" x="5" y="0" width="12" height="19">
        <path fill-rule="evenodd" clip-rule="evenodd" d="M16.787.03H5v18.277h11.787V.03z" fill="#fff"></path>
    </mask>
    <g mask="url(#a)">
        <path fill-rule="evenodd" clip-rule="evenodd" d="M16.269 15.178L10.547.896l.369.325a5.716 5.716 0 00-.688-.12 6.627 6.627 0 00-.712-.046c-.472-.001-.944.045-1.371.183l-.16.054c-.034.01-.112.045-.165.067-.126.05-.218.098-.324.146a6.788 6.788 0 00-.626.358 6.734 6.734 0 00-.864.668 5.36 5.36 0 00-.25.245l.083-.4 4.518 15.246-.193-.184a12.93 12.93 0 001.742.282c.293.023.586.043.875.037.145.003.287-.012.43-.018.14-.02.285-.027.419-.061.139-.022.265-.066.394-.106.126-.052.28-.111.409-.17.26-.116.523-.253.773-.4a6.02 6.02 0 00.712-.5c.112-.091.47-.394.525-.623l.108.128c.145.17.148.423.009.598-.113.145-.24.266-.31.324a6.527 6.527 0 01-.777.546c-.272.16-.546.304-.838.433-.146.067-.274.115-.427.178-.16.051-.318.104-.477.13-.16.038-.316.047-.474.069-.157.007-.315.023-.47.02a8.95 8.95 0 01-.927-.039 13.407 13.407 0 01-1.82-.293l-.144-.034-.048-.152L5.07 2.627 5 2.405l.152-.179v-.002a6.346 6.346 0 01.596-.596c.205-.181.42-.352.643-.512.224-.159.457-.303.699-.438.124-.064.26-.138.37-.187.066-.028.105-.05.19-.085L7.852.33c.543-.2 1.102-.274 1.65-.296a7.496 7.496 0 011.229.06c.139.02.265.038.42.07l.27.063.1.261L16.7 13.837c.12.314.133.522-.065.948-.164.35-.365.393-.365.393z" fill="#181716"></path>
    </g>
    <path fill-rule="evenodd" clip-rule="evenodd" d="M12.53 22.455a24.059 24.059 0 001.844-.281c.21-.043.418-.088.612-.138a7.796 7.796 0 001.22-.415c.197-.082.388-.175.577-.27a16.433 16.433 0 002.143-1.33l.072-.054s1.157 3.055 1.257 3.38c.076.25.067.456.067.456.025.03.14.015.31-.146.159-.15.278-.456.193-.71l-1.263-3.786-.178-.53-.45.345c-.15.116-.316.237-.48.35l-.496.338c-.334.22-.675.429-1.021.622-.346.197-.702.367-1.06.525-.178.078-.36.148-.54.212-.183.062-.361.12-.55.165-.2.052-.39.094-.578.134a23.72 23.72 0 01-1.772.28c-.398.049-.8.074-1.2.111-.4.035-.804.06-1.2.075l-.557.02 2.069 5.61h.213c.378 0 .732-.011 1.103-.03a23.54 23.54 0 001.102-.078 17.32 17.32 0 001.104-.136c.369-.057.735-.13 1.103-.223.183-.05.366-.099.548-.164.183-.064.364-.134.532-.214.353-.163.679-.343 1.003-.538.485-.293.862-.516 1.408-.959a.577.577 0 00.119-.785l-.027-.033c-.484.514-1.148.925-1.773 1.285a9.647 9.647 0 01-.952.482 4.97 4.97 0 01-.493.185c-.164.054-.336.095-.507.139-.345.077-.696.14-1.051.185a16.58 16.58 0 01-1.073.106 23.72 23.72 0 01-1.914.056l-1.382-4.082a29 29 0 001.919-.159z" fill="#181716"></path>
    <path fill-rule="evenodd" clip-rule="evenodd" d="M8.985 17.187s-.181.014-.446.184a4.48 4.48 0 00-1.044.91 3.113 3.113 0 00-.255.36l-.035.063c-.01.018-.011.024-.018.038a1.335 1.335 0 00-.092.282 1.16 1.16 0 00-.01.433c.019.117.105.373.167.592.274.905.565 1.931.886 3.049l1.046 3.606.584 1.963c.1.332.204.67.308 1.01.105.328.219.699.326.977l.019.052c-.013-.023.036.069-.027-.048l.009.015.018.028.019.028c.005.006-.001-.01-.002-.013a.072.072 0 00-.024-.028s.03.018.043.029l.079.04c.12.054.27.102.427.141.314.08.658.13 1.004.165a15.2 15.2 0 002.14.05c1.444-.068 2.926-.286 4.28-.79.086-.03.167-.067.25-.1l.118-.05.129-.06c.169-.08.35-.156.51-.24.324-.162.649-.338.969-.522a15.22 15.22 0 001.819-1.24c.562-.454 1.113-.953 1.49-1.492.047-.066.079-.131.12-.196.02-.033.025-.06.039-.09.008-.025.034-.065.029-.077a.145.145 0 01.013-.05c0-.011.003.085 0 .035l-.001-.017-.005-.034-.01-.07c-.008-.1-.032-.162-.05-.237a11.701 11.701 0 00-.131-.488c-.047-.173-.101-.346-.153-.519-.421-1.38-.874-2.71-1.301-3.97l-1.218-3.549-.546-1.575-.256-.73c-.088-.245-.147-.46-.247-.614a1.433 1.433 0 00-.368-.41 1.432 1.432 0 00-.223-.135c-.078-.039-.148-.062-.25-.097a4.67 4.67 0 00-1.003-.194 5.797 5.797 0 00-1.84.153l-.131.031-.131-.512.138-.037a6.314 6.314 0 012.002-.23c.349.018.73.072 1.147.196.087.028.212.066.32.118.113.052.222.115.327.189a2.058 2.058 0 01.647.765l.048.104.034.086.133.355.269.727.577 1.566a247.99 247.99 0 011.274 3.535c.44 1.26.907 2.585 1.349 3.983.055.175.112.35.163.53.052.18.106.352.158.578.024.105.054.22.062.306l.01.069.005.034.002.017a.534.534 0 01.003.07c-.01.075-.021.15-.036.226-.013.081-.041.121-.062.184-.024.055-.045.119-.072.166-.055.094-.107.196-.166.281-.473.686-1.047 1.197-1.644 1.694-.601.49-1.24.933-1.907 1.331-.334.197-.674.387-1.027.567-.176.094-.344.166-.517.25l-.128.061-.144.063c-.092.038-.183.08-.277.114-1.484.57-3.027.806-4.546.897a16.11 16.11 0 01-2.273-.029 8.228 8.228 0 01-1.14-.176 3.554 3.554 0 01-.594-.195l-.161-.08c-.061-.04-.108-.067-.18-.123a1.373 1.373 0 01-.172-.181l-.02-.028-.018-.029-.01-.013c-.07-.126-.023-.047-.041-.08l-.031-.075c-.157-.398-.253-.717-.37-1.067-.11-.342-.216-.681-.323-1.016-.206-.67-.41-1.326-.605-1.964-.385-1.279-.75-2.486-1.084-3.602-.333-1.116-.64-2.138-.891-3.05-.061-.236-.133-.414-.188-.733a2.276 2.276 0 01.15-1.216 2.16 2.16 0 01.085-.176l.05-.088.038-.06c.132-.2.249-.344.379-.49.56-.609 1.609-1.266 2.233-.41z" fill="#181716"></path>
    </symbol>

    <symbol fill="none" xmlns="http://www.w3.org/2000/svg" viewBox="0 0 30 32" id="hairdryer">
    <path fill-rule="evenodd" clip-rule="evenodd" d="M10.497 19.435c-1.16-1.565-1.38-1.137-1.38-1.137s-4.248 1.433-6.32-1.187-3.178-6.342-1.495-8.646c1.683-2.304 3.7-3.096 5.422-3.247 1.722-.152 6.523.974 9.057 1 5.05.05 8.868-.268 8.868-.268l.941 5.022s-5.588 1.502-7.754 3.182c-2.166 1.68-3.406 3.248-3.075 4.964 0 0-.818 1.7 1.628 5.114 1.731 2.414 1.877 3.875 1.21 4.273-.666.398-1.95.862-3.306-1.237-1.356-2.1-3.796-7.833-3.796-7.833z" fill="#F6CEA9"></path>
    <path fill-rule="evenodd" clip-rule="evenodd" d="M27.48 2.494l.334.76c.208.5.499 1.241.798 2.207.297.967.566 2.167.764 3.562.018.196.058.297.058.577a.783.783 0 01-.412.657c-.436.153-.743.224-1.136.344l-2.361.687a27.415 27.415 0 00-5.112 1.953c-1.765.852-3.5 1.897-5.358 3.025A27.279 27.279 0 018.88 18.83c-.52.148-1.125.342-1.744.376-.614.033-1.243.002-1.84-.164a6.676 6.676 0 01-3.137-1.857c-.853-.859-1.48-2.013-1.825-3.124-.367-1.185-.414-2.41-.226-3.602.22-1.18.699-2.322 1.479-3.23a5.529 5.529 0 011.33-1.172 5 5 0 01.798-.423c.288-.128.49-.18.8-.281 2.06-.605 4.16-1.005 6.143-1.132.993-.076 1.976-.062 2.883-.064a52.059 52.059 0 002.654-.083c1.699-.097 3.249-.278 4.599-.541 1.335-.254 2.508-.635 3.473-.881l2.239-.611c.123-.05.378-.06.504.003a.806.806 0 01.309.207.962.962 0 01.157.234l.004.009zm-.454.219l-.024-.047c-.007-.008-.023-.037-.052-.066-.072-.055-.124-.128-.304-.061l-2.23.647c-.967.263-2.103.656-3.5.948-1.38.292-2.955.5-4.676.626-.861.064-1.758.107-2.688.128-.94.017-1.87.019-2.834.108-1.937.158-3.924.567-5.965 1.201-1.933.512-3.368 2.352-3.673 4.424-.148 1.029-.077 2.127.243 3.114.175.574.359.994.626 1.474.268.457.574.896.945 1.273a5.685 5.685 0 002.645 1.635c.5.151 1.022.181 1.535.165.517-.019 1-.165 1.563-.314a26.401 26.401 0 006.038-2.383c1.822-1.062 3.659-2.125 5.449-2.948a28.028 28.028 0 015.246-1.9l2.373-.645 1.055-.291c.067-.028.129-.124.132-.234.006-.079-.04-.326-.056-.476a23.859 23.859 0 00-.772-3.477 21.125 21.125 0 00-.758-2.165l-.322-.745.004.009z" fill="#000"></path>
    <path fill-rule="evenodd" clip-rule="evenodd" d="M23.996 2.98s.54 1.474.935 2.987a30.62 30.62 0 01.656 3.058l-.48.081s-.285-1.508-.746-2.976a36.74 36.74 0 00-1.017-2.895l.652-.255zM6.229 11.413l5.006-1.117.119.421-4.854 1.66-.271-.964zm-.592-1.846s.297-.118.775-.277c.47-.158 1.104-.34 1.745-.48 1.282-.291 2.581-.39 2.581-.39l.06.434s-1.255.236-2.449.649c-.597.202-1.179.439-1.605.636-.418.193-.706.344-.706.344l-.4-.916zm1.191 3.701l.785-.066a15.82 15.82 0 001.704-.273c1.234-.257 2.41-.75 2.41-.75l.187.395s-1.148.637-2.405 1.047c-.624.21-1.264.378-1.75.482l-.807.157-.124-.992zm-3.26-7.03l-.17.574a6.983 6.983 0 00-.177.657c-.054.254-.136.536-.179.855a11.791 11.791 0 00-.183 2.184c.022.4.024.817.1 1.23.046.42.153.834.25 1.25.132.405.254.816.43 1.199.15.394.364.752.551 1.106.411.69.858 1.296 1.287 1.779.201.252.42.453.6.643.178.192.347.346.488.473l.44.398-.218.254s-.163-.148-.45-.404a7.62 7.62 0 01-.503-.48c-.185-.194-.409-.4-.618-.657a12.163 12.163 0 01-1.336-1.824c-.197-.365-.42-.736-.578-1.143-.185-.397-.315-.822-.454-1.244-.104-.43-.217-.86-.269-1.295-.08-.43-.085-.862-.11-1.277a12.18 12.18 0 01.175-2.26c.042-.329.126-.625.181-.89.055-.267.12-.489.175-.67.107-.367.17-.576.17-.576l.398.118zm13.464 8.552s-.38.414-.934 1.23a8.862 8.862 0 00-.847 1.536c-.24.597-.474 1.42-.05 2.01.508.65 1.185 1.275 1.9 1.952.71.68 1.485 1.385 2.153 2.277.33.435.63.98.77 1.536.148.562.242 1.115.32 1.683.076.565.132 1.135.174 1.708.015.304.053.533.04.9a1.35 1.35 0 01-.544.935 1.509 1.509 0 01-.477.24 1.68 1.68 0 01-.265.056l-.216.022a3.71 3.71 0 01-.939-.05 3.377 3.377 0 01-1.666-.81c-.827-.883-1.467-1.734-2.132-2.606-1.29-1.738-2.369-3.452-3.053-5.095a8.356 8.356 0 01-.383-1.222c-.085-.383-.184-.539-.425-.767-.44-.413-.98-.67-1.412-.86a9.85 9.85 0 00-1.049-.375l-.373-.1.187-.79.42.118c.264.083.652.21 1.131.42.475.217 1.06.486 1.638 1.033.288.232.57.75.624 1.141.085.382.187.742.338 1.13.613 1.535 1.657 3.252 2.905 4.963.622.84 1.32 1.764 2.021 2.532.365.341.841.571 1.346.67.487.081 1.091.108 1.415-.14a.748.748 0 00.31-.497c.012-.203-.02-.544-.032-.808a29.472 29.472 0 00-.154-1.674c-.147-1.113-.302-2.167-.956-2.974-.61-.835-1.367-1.545-2.068-2.228-.703-.682-1.393-1.327-1.934-2.037-.304-.415-.353-.925-.302-1.339.047-.425.18-.794.317-1.128a9.353 9.353 0 01.906-1.61c.58-.835.98-1.263.98-1.263l.316.28z" fill="#000"></path>
    </symbol>

   <symbol fill="none" xmlns="http://www.w3.org/2000/svg" viewBox="0 0 30 32" id="ring">
    <path fill-rule="evenodd" clip-rule="evenodd" d="M7.265 3.8L3.583 9.512l11.075 6.628L17.4 6.012l-4.748-3.614L7.265 3.8z" fill="#F18B98"></path>
    <mask id="a" maskUnits="userSpaceOnUse" x="3" y="1" width="25" height="31">
      <path fill-rule="evenodd" clip-rule="evenodd" d="M27.308 31.907V1H3v30.907h24.308z" fill="#fff"></path>
    </mask>
    <g mask="url(#a)">
      <path fill-rule="evenodd" clip-rule="evenodd" d="M3.968 9.41l10.638 6.634 3.28-5.963.036-.088.758-1.353 1.728-3.14L5.996 9.05a.969.969 0 01.636-.564l13.39-3.697-5.094-2.253a.82.82 0 00-.526-.047L7.827 4.085 3.967 9.41zm2.09 14.71c.499 1.55 1.489 2.791 2.233 3.56a9.994 9.994 0 003.306 2.242c1.507.64 3.139.917 4.72.804a11.424 11.424 0 002.008-.326 10.903 10.903 0 004.399-2.275c2.046-1.763 3.353-4.376 3.496-6.989.118-2.16-.45-4.288-1.596-5.99a10.256 10.256 0 00-2.853-2.852c-.783-.519-2.015-1.196-3.44-1.479-.118-.024-.19-.039-.252-.023-.083.021-.117.083-.161.161l-3.222 5.417c-.226-.112-.99-.549-2.276-1.303l-1.796-1.04-1.095-.644a3.148 3.148 0 01-.264-.14c-.091-.055-.153-.09-.234-.07-.06.015-.105.055-.19.125-.44.373-.811.78-1.15 1.166a8.997 8.997 0 00-1.667 2.885 9.67 9.67 0 00-.572 3.368c.014.813.133 1.673.375 2.704l.194-.046-.073.112-.117-.057.227.69zm12.572 7.425a11.62 11.62 0 01-2.798.362c-4.318.03-8.314-2.349-10.18-6.057a11.006 11.006 0 01-1.021-6.783c.419-2.419 1.72-4.632 3.66-6.23l.112-.093L3 9.622 7.135 3.16c.019-.029.055-.049.122-.066l.149-.033 7.39-2.059c.04-.01.086.017.156.062l6.643 3.716-3.173 5.33.139.028c1.245.244 2.488.73 3.596 1.402 2.199 1.34 3.865 3.4 4.573 5.655.715 2.277.768 4.516.155 6.476-.812 2.597-2.457 4.821-4.634 6.263a11.848 11.848 0 01-3.62 1.61l-.001.001z" fill="#181716"></path>
    </g>
    <path fill-rule="evenodd" clip-rule="evenodd" d="M19.714 13.104l.416.219a8.493 8.493 0 012.634 2.311c.5.664.945 1.508 1.246 2.488l.11.393.077.368c.057.242.105.5.127.792.035.283.06.57.052.854.007.286 0 .576-.037.869a8.638 8.638 0 01-1.121 3.502 8.753 8.753 0 01-2.723 2.843c-1.12.747-2.5 1.202-3.837 1.314-2.777.27-5.548-.978-7.188-2.952a8.456 8.456 0 01-1.718-3.237c-.105-.314-.127-.553-.193-.828-.034-.287-.092-.577-.098-.85a8.304 8.304 0 01.038-1.592c.115-1.018.439-1.912.802-2.651a8.66 8.66 0 011.177-1.774c.394-.442.736-.756.98-.956l.379-.301.359.472s-.12.1-.342.29a8.35 8.35 0 00-.875.914 7.9 7.9 0 00-1.692 4.097c-.042.46-.065.943-.016 1.44.008.252.064.487.092.738.064.25.107.563.19.775a7.63 7.63 0 001.58 2.889 7.432 7.432 0 002.859 2.035 7.346 7.346 0 003.558.523c1.24-.135 2.406-.498 3.424-1.158a7.801 7.801 0 002.447-2.503 7.736 7.736 0 001.03-3.118 6.715 6.715 0 00.006-1.52c-.027-.448-.162-1.043-.27-1.422a7.877 7.877 0 00-2.38-3.711 8.005 8.005 0 00-1.008-.742l-.401-.232.316-.58z" fill="#181716"></path>
  </symbol>

  <symbol fill="none" xmlns="http://www.w3.org/2000/svg" viewBox="0 0 30 32" id="girl">
    <path fill-rule="evenodd" clip-rule="evenodd" d="M12.335 19.633v8.431s-1.543-1.685-3.921-2.308c-2.378-.624-3.921-.785-3.921-.785l.01-1.992.642.328.19-.404v-1l-.07-1.084-.395-1.05-.354-.39.066-3.652s3.02.46 4.989 1.627c1.967 1.166 2.764 2.279 2.764 2.279zm2.374 2.167s.022-.892.942-1.69c.92-.797 4.52-3.286 7.406-3.935s2.278-.448 2.278-.448v3.682s-1.995 1.04-2.081 2.288c-.086 1.247-.008 1.585.206 2.012.214.427.875.524.875.524v.884s-3.423 1.214-5.125 2.216c-2.402 1.414-3.783 3.221-4.212 3.762-.428.54-.29-9.295-.29-9.295z" fill="#B4E0F1"></path>
    <path fill-rule="evenodd" clip-rule="evenodd" d="M25.913 21.745c-.13.285-.375.569-.662.798a2.57 2.57 0 01-.484.301c-.08.036-.177.073-.236.087a.44.44 0 01-.13.024c-.004 0-.012-.002-.02.005.008-.002-.016.013-.045-.045a.64.64 0 01-.068-.214 2.587 2.587 0 01-.016-.581 3.661 3.661 0 01.18-.912c.033-.089.069-.182.116-.287l-.003.008c.18-.38.356-.715.619-.957.064-.062.136-.117.206-.168l.08-.052a1.106 1.106 0 01.354.141c.057.036.103.08.12.11 0 0-.002-.002-.001-.004l.035.07c-.017-.022.009.042.012.063.035.137.048.32.047.505a8.77 8.77 0 01-.104 1.108zm-.354-2.06a.533.533 0 01-.042.027s-.004 0-.006.002l.039-.023.009-.006zm-5.621-2.887c-.221.101-.467.218-.691.338-.907.468-1.79.99-2.624 1.592-.414.304-.82.625-1.202.978-.19.178-.377.36-.554.556l-.111.13a8.913 8.913 0 00-.436-.502 11.604 11.604 0 00-1.156-1.035 15.044 15.044 0 00-1.264-.882 17.8 17.8 0 00-1.333-.763 11.954 11.954 0 00-.69-.342c-.225-.097-.46-.199-.69-.283l1.513-.792a1.263 1.263 0 011.436.185l1.96 1.807c.23.212.526.319.822.319.295 0 .59-.107.82-.319l2.29-2.109a.54.54 0 01.658-.055l1.6 1.03-.348.147zm-5.151 13.99l-.003-.003c.01.008.017.014.003.002zm-9.374-9.861c.046.102.083.193.115.28.035.099.059.198.084.3.049.202.073.41.088.613.012.203.01.405-.02.58a.612.612 0 01-.07.209c-.03.056-.051.037-.04.036-.004-.009-.012-.008-.012-.008a.39.39 0 01-.127-.024 1.812 1.812 0 01-.231-.088 2.527 2.527 0 01-.478-.302c-.28-.23-.524-.509-.65-.788a7.286 7.286 0 01-.063-.526 5.953 5.953 0 01-.04-.571 2.203 2.203 0 01.043-.5c.002-.02.028-.084.009-.058l.033-.068a.407.407 0 01.11-.103.92.92 0 01.197-.098.972.972 0 01.146-.045l.074.047c.07.05.143.104.208.164.263.239.442.572.624.95zm-.968-1.2a.02.02 0 00-.01-.003.36.36 0 01-.043-.029l.009.006.044.026zm4.728-6.748c.118-.615.21-1.32.213-1.952a24.38 24.38 0 00-.03-1.933L9.246 7.2c-.021-.622-.02-1.217.099-1.81a6.62 6.62 0 01.512-1.72 4.768 4.768 0 011.008-1.455c.84-.844 2.02-1.33 3.25-1.482l.455-.046.489-.017.448.015.453.055a4.767 4.767 0 011.696.625c.52.311.984.717 1.377 1.182.397.472.705.981.956 1.553.238.545.392 1.154.512 1.762.095.495.162 1 .21 1.502a27.273 27.273 0 01-2.296-.445 25.55 25.55 0 01-1.298-.356c-.217-.059-.426-.138-.638-.206a9.252 9.252 0 01-.628-.228c-.42-.154-.82-.338-1.217-.528-.2-.093-.384-.21-.576-.313a4.538 4.538 0 01-.547-.349c-.176-.123-.36-.237-.508-.386-.147-.143-.336-.274-.45-.426-.118-.156-.25-.284-.367-.455l-.315-.59-.69.355.327.582c.07.102.153.205.238.307a5.123 5.123 0 01-.828 1.136 4.285 4.285 0 01-.88.7 2.595 2.595 0 01-.33.173l-.127.06.212.512.15-.063a3.14 3.14 0 00.39-.183 4.975 4.975 0 001.047-.757c.342-.318.63-.683.825-.971l.043-.066c.09.075.183.148.272.23.175.166.377.289.574.42.195.134.392.264.602.367.208.108.409.227.622.322.424.193.849.376 1.287.527.216.086.433.149.654.218.22.067.432.132.655.188.444.126.877.211 1.326.313.453.1.846.177 1.269.243-.085 1.08-.71 6.354-4.774 6.354-3.116 0-4.115-4.332-4.4-6.195l-.562.08c.25 1.634 1.027 5.033 3.234 6.233-.1.121-.22.267-.37.432l-.14.158c-.165.187-.29.325-.488.49a1.844 1.844 0 00-1.58.06l-1.873.98c.068-.454.173-.96.262-1.433l.355-1.876zm4.367 1.424a3.62 3.62 0 001.195.197c.595 0 1.122-.1 1.592-.272.209.283.572.729 1.064 1.175l-2.043 1.882a.638.638 0 01-.86 0l-1.961-1.806c-.008-.008-.018-.013-.026-.02a5.38 5.38 0 00.427-.442l.138-.154c.203-.225.363-.42.474-.56zm7.549 1.962l-.144.049L19 15.16a1.109 1.109 0 00-1.167-.012 7.65 7.65 0 01-.98-1.056c2.629-1.4 3.13-5.295 3.218-6.32l.199.024-.013.143-.041.447c-.013.165-.041.373-.046.609-.017.892.054 2.027.162 3.174.056.57.117 1.147.215 1.685.095.535.2 1.026.295 1.445l.247 1.065zm4.246 9.866c-1 .106-4.971.704-9.1 3.921l.25.43c4.598-3.583 8.663-3.82 8.705-3.823l.145-.012v-.516zm0-2.623l.29-.223a3.914 3.914 0 001.042-1.2l.102-.18.018-.048c.088-.444.15-.865.138-1.327a2.84 2.84 0 00-.094-.73c-.027-.078-.038-.113-.095-.23l-.04-.069a1.743 1.743 0 00-.097-.128 1.299 1.299 0 00-.374-.284c-.128-.067-.328-.114-.46-.148-.112-.027-.43-.044-.43-.047v-3.266l-.174-.042h.002c-1.025 0-2.024.21-3.02.474-.166.044-.332.04-.497.086-.047-.245-.115-.618-.196-1.037a34.25 34.25 0 01-.237-1.44 20.175 20.175 0 01-.148-1.646c-.066-1.124-.093-2.27-.047-3.087.01-.19.042-.373.063-.553.022-.173.042-.729.058-.853.015-.116.027-.68.035-.68 0 0 .025-.756-.087-1.393a8.32 8.32 0 00-.525-1.795 6.686 6.686 0 00-1.022-1.66A6.1 6.1 0 0018.133.857c-.605-.39-1.703-.768-2.424-.85l-.142-.016-.53-.02-.49.013-.52.043c-1.353.147-2.722.676-3.721 1.65a5.566 5.566 0 00-1.19 1.664 7.407 7.407 0 00-.6 1.911c-.14.651-.152 1.333-.138 1.975l.082 1.904c.029.788.03 1.568-.025 2.347-.032.45-.108.896-.198 1.339l-.38 1.856c-.093.47-.196.908-.278 1.395a24.649 24.649 0 00-2.91-.613l-.334-.049v.322c0 1.086.017 2.17.01 3.257a1.958 1.958 0 00-.233.04c-.133.034-.26.08-.391.147a1.32 1.32 0 00-.38.287 1.433 1.433 0 00-.098.133l-.041.067c-.06.12-.07.155-.098.234-.08.268-.094.505-.102.737a5.75 5.75 0 00.025.674c.028.222.06.43.106.658l.01.052.018.039c.233.516.615.881 1.039 1.16.213.139.439.258.69.347.132.042.248.078.414.101a1.087 1.087 0 00.525-.04.77.77 0 00.419-.42 1.38 1.38 0 00.1-.42 3.146 3.146 0 00-.037-.727c-.034-.231-.096-.452-.15-.675l-.091-.333a5.57 5.57 0 00-.107-.33l-.003-.007c-.14-.389-.312-.832-.637-1.206a2.414 2.414 0 00-.257-.265l-.143-.12-.005-.002c-.008-1.017-.002-2.034 0-3.05.87.159 1.74.36 2.587.614.476.142.947.302 1.403.485.233.09.446.188.669.288.233.115.443.219.657.342.435.237.859.49 1.269.76.428.275.833.58 1.225.895a9.04 9.04 0 011.124 1.071c.12.137.238.277.344.422.12.159.124.084.202.232l.02 5.127-.097 2.611-.101 1.305v.119l.037-.056c-.35-.284-.525-.315-.898-.571l-.521-.396-.661-.435a13.04 13.04 0 00-1.114-.654c-.381-.2-.761-.4-1.155-.576a17.213 17.213 0 00-2.553-.946c-.437-.128-1.175-.23-1.623-.318-.365-.066-1.397-.118-1.397-.15v.265s.854.163 1.505.314c.426.099.888.259 1.308.389.42.122.85.303 1.26.458.472.182.946.406 1.394.623.399.194.787.404 1.168.629.318.187.64.373.943.584l.547.364.526.392c.257.192.509.39.755.596l.515.43.085.07s.055.038.093.056a.609.609 0 00.537-.004.612.612 0 00.312-.327c.022-.062.052-.165.052-.189v-.082l-.023-.326-.007-1.305.01-2.61.02-5.222v-.093l-.038-.065c-.004-.006-.011-.012-.014-.02.08-.112.169-.227.263-.336.15-.178.316-.348.485-.516.342-.334.714-.646 1.097-.945.775-.59 1.61-1.119 2.477-1.596.215-.123.42-.226.655-.342.223-.1.432-.195.665-.284.454-.184 1.135-.334 1.61-.474.847-.25 1.8-.56 2.8-.626v3.366c-.093.084-.38.183-.46.276-.325.371-.784 1.242-.818 1.36l-.176.334c-.051.224-.151.445-.184.676-.033.23-.077.467-.054.725.013.129.024.265.09.415a.749.749 0 00.407.41.992.992 0 00.31.053c.05 0 .323 0 .415-.015.1-.015.47-.035.47-.058v.023z" fill="#000"></path>
    <path fill-rule="evenodd" clip-rule="evenodd" d="M25.002 19.629h.434v-3.985l-.434.041v3.944z" fill="#000"></path>
    <mask id="a" maskUnits="userSpaceOnUse" x="3" y="-1" width="24" height="33">
      <path fill-rule="evenodd" clip-rule="evenodd" d="M3 31.466h23.926V-.029H3v31.495z" fill="#fff"></path>
    </mask>
    <g mask="url(#a)" fill-rule="evenodd" clip-rule="evenodd" fill="#000">
      <path d="M4.346 26.434h.585v-3.455h-.585v3.455zm20.404 0h.585v-3.455h-.585v3.455z"></path>
    </g>
  </symbol>

    <symbol  xmlns="http://www.w3.org/2000/svg" viewBox="0 0 30 26" id="basket">
    <path fill-rule="evenodd" clip-rule="evenodd" d="M23.061 22.58l4.205-10.526c.301-.774.674-1.645.953-2.429a1.037 1.037 0 00-.24-.903.875.875 0 00-.402-.253.973.973 0 00-.24-.032l-.364.002-6.128.023-13.318.052-3.396.013-.845.003c-.27.001-.627-.008-.674.042-.312.094-.549.448-.554.803-.02.273.275.907.43 1.404l.547 1.556 1.075 3.053c.706 2.004 1.39 3.942 2.035 5.78.18.54.25.724.502.87.121.067.22.094.378.092a9244.88 9244.88 0 003.345-.013l11.335-.043v1.283l-11.335-.044-2.652-.01-.693-.003a1.85 1.85 0 01-.968-.258 1.928 1.928 0 01-.703-.726c-.18-.35-.204-.528-.298-.77l-1.99-5.795-1.052-3.06-.536-1.56-.27-.788c-.078-.22-.229-.617-.206-.999.022-.756.506-1.512 1.283-1.762.49-.143.712-.07 1.001-.088l.845.003c1.13.004 2.263.01 3.396.013l13.318.052 6.128.023.364.002c.155.002.32.023.474.067.311.091.585.273.791.503.413.468.57 1.09.415 1.7-.34.94-.68 1.694-.999 2.501l-4.286 10.493-.67-.27z" ></path>
    <path fill-rule="evenodd" clip-rule="evenodd" d="M22.288 11.788h-.006l-14.823.593a.146.146 0 00-.118.064.15.15 0 00-.024.132l.314 1.095a.152.152 0 00.147.11h13.915a.154.154 0 00.144-.101l.596-1.688a.15.15 0 00-.02-.142.152.152 0 00-.125-.063zm-.596 2.745H7.778a.905.905 0 01-.868-.656l-.313-1.094a.897.897 0 01.135-.778.896.896 0 01.698-.373l14.823-.593a.9.9 0 01.764.367.907.907 0 01.123.838l-.596 1.687a.904.904 0 01-.852.602zm-1.021 4.424c.076-.001.138-.046.154-.12l.361-1.534a.152.152 0 00-.03-.131.15.15 0 00-.12-.058h-.002L8.942 17.2a.153.153 0 00-.123.062.151.151 0 00-.025.134l.311 1.085a.153.153 0 00.142.11l11.424.366zm.005.75h-.028l-11.424-.365a.9.9 0 01-.84-.655l-.31-1.085a.897.897 0 01.145-.79.897.897 0 01.717-.362l12.093-.086a.838.838 0 01.713.34.896.896 0 01.174.77l-.36 1.536a.907.907 0 01-.88.697zM6.568 7.71s.732-.887 1.888-2.17a89.256 89.256 0 012.029-2.15c.385-.382.788-.772 1.215-1.16.216-.193.43-.387.67-.575l.178-.142.045-.035.055-.04.088-.062c.137-.093.299-.193.477-.263.179-.072.408-.136.677-.102.273.03.51.183.653.315.075.067.135.13.188.188l.038.042.042.05.016.022c.019.025.04.05.088.129.146.255.174.48.168.702-.06.863-.651 1.348-.983 1.71a45.942 45.942 0 01-2.115 2.069c-.628.594-1.18 1.06-1.56 1.39-.382.329-.61.508-.61.508l-.41-.441 1.97-2.074 2-2.132c.166-.185.394-.417.489-.561.116-.168.194-.373.193-.506.005-.06-.024-.123-.02-.115.016.015-.006-.016-.031-.047l-.017-.021-.008-.01a.395.395 0 00.02.024l-.004-.004-.033-.038a1.937 1.937 0 00-.112-.117c-.067-.06-.085-.064-.1-.066a.347.347 0 00-.162.033c-.09.034-.175.083-.277.148l-.09.06a1.343 1.343 0 00-.031.023l-.04.03-.16.124c-.212.162-.423.346-.63.526-.416.364-.816.743-1.202 1.11a85.937 85.937 0 00-2.105 2.033L7.01 8.118l-.443-.407zm16.385.59l-2.045-1.49a95.81 95.81 0 00-2.106-1.505l-1.196-.829-.62-.413-.316-.2c-.093-.06-.248-.159-.244-.142a.395.395 0 00-.338.035c-.05.016-.284.285-.342.372a.383.383 0 00-.019.326.468.468 0 00.173.218l.143.102c.781.542 1.497 1.068 2.111 1.518a75.292 75.292 0 012.03 1.525l-.34.495s-.87-.525-2.143-1.36c-.637-.416-1.38-.9-2.164-1.44l-.15-.102a1.373 1.373 0 01-.502-.619 1.297 1.297 0 01.145-1.248l.057-.075.14-.163c.055-.074.232-.262.392-.345a1.314 1.314 0 011.126-.096c.245.1.293.161.415.232l.322.212.63.43c.413.287.816.575 1.201.86a94.341 94.341 0 012.064 1.598 87.833 87.833 0 011.95 1.633l-.374.471z"></path>
  </symbol>

    <symbol xmlns="http://www.w3.org/2000/svg" viewBox="0 0 30 26" id="like">
    <path fill-rule="evenodd" clip-rule="evenodd" d="M14.254 10.052c.573-1.365 1.32-2.64 2.294-3.783.502-.553 1.048-1.09 1.717-1.487.653-.405 1.41-.72 2.216-.76.792-.094 1.63.125 2.292.382.77.33 1.413.784 1.952 1.366.522.585.96 1.25 1.232 1.98.308.717.45 1.486.53 2.253.042.769.024 1.55-.162 2.303-.151.759-.44 1.487-.806 2.17a8.266 8.266 0 01-1.413 1.82c-.5.515-1.085 1.103-1.638 1.568-2.266 1.876-4.728 2.872-7.313 4.872h-.002l-.448.158-.24-.502a10.98 10.98 0 00-.957-1.525c-.36-.485-.76-.95-1.186-1.376a11.952 11.952 0 00-1.351-1.195c-.473-.371-.99-.68-1.514-.966-.555-.298-1.13-.607-1.678-.985A10.835 10.835 0 016.23 15.11c-.956-.92-1.758-2.104-2.062-3.457a6.518 6.518 0 01-.145-2.038c.013-.168.042-.335.062-.502.016-.096.013-.138.044-.28l.056-.228c.056-.293.18-.634.312-.971.284-.63.62-1.223 1.085-1.728A5.29 5.29 0 017.18 4.629c.598-.352 1.297-.49 1.978-.57.688-.01 1.38.064 2.009.308.318.113.63.235.91.413.292.16.582.32.833.53.544.372.993.839 1.459 1.285l-.403.399c-.468-.397-.917-.817-1.436-1.128-.243-.183-.514-.31-.782-.438-.261-.15-.543-.236-.823-.321-.555-.194-1.136-.224-1.702-.201-.556.096-1.118.217-1.6.532a4.618 4.618 0 00-1.3 1.102c-.384.428-.66.955-.881 1.47-.09.254-.188.5-.246.829l-.051.23-.021.188-.045.435c-.035.58.02 1.154.146 1.709.25 1.115.914 2.108 1.762 2.924.868.829 1.86 1.455 2.976 2.033.58.315 1.149.653 1.668 1.059.525.395 1.023.827 1.473 1.304.452.474.87.978 1.249 1.512.38.538.718 1.092 1.02 1.719l-.687-.216h.002c1.235-1 2.457-1.466 3.638-2.26a37.809 37.809 0 003.435-2.528 21.775 21.775 0 001.557-1.424 7.134 7.134 0 001.232-1.583c.31-.586.56-1.211.689-1.868.165-.65.169-1.327.157-1.994-.056-.663-.161-1.333-.412-1.948-.216-.631-.576-1.194-.996-1.693a4.802 4.802 0 00-1.53-1.141c-.665-.271-1.264-.436-1.914-.38-.641.012-1.267.254-1.84.589-.585.323-1.086.806-1.57 1.295-.944 1.01-1.73 2.22-2.327 3.486l-.553-.235z"></path>
    </symbol>

  <symbol xmlns="http://www.w3.org/2000/svg" viewBox="0 0 30 26" id="user">
    <path fill-rule="evenodd" clip-rule="evenodd" d="M13.77 8.817a7.573 7.573 0 001.931-.358 6.613 6.613 0 001.206-.538 5.47 5.47 0 001.066-.78c.04-.03.07-.067.105-.1a7.304 7.304 0 001.183 1.49c.418.406.9.746 1.286.954.192.108.36.183.48.23l.184.08.218-.544-.16-.078a3.307 3.307 0 01-.412-.224 5.387 5.387 0 01-1.1-.907A6.552 6.552 0 0118.64 6.41c.033-.046.067-.092.097-.137.096-.14.2-.27.26-.384l.16-.294.138-.256-.508-.29-.15.248-.174.285c-.066.111-.155.203-.243.321a2.588 2.588 0 01-.312.356c-.122.12-.239.256-.39.365a4.76 4.76 0 01-.969.638 5.86 5.86 0 01-1.084.421 6.654 6.654 0 01-1 .191c-.594.071-.987.03-.966.033l-.059.915.094.002c.056 0 .137 0 .236-.006z"></path>
    <mask id="a" maskUnits="userSpaceOnUse" x="5" y="1" width="20" height="25">
      <path fill-rule="evenodd" clip-rule="evenodd" d="M24.059 1v24.95H5V1h19.059z" fill="#fff"></path>
    </mask>
    <g mask="url(#a)">
      <path fill-rule="evenodd" clip-rule="evenodd" d="M11.67 17.665c-2.116-2.004-2.754-5.641-2.914-6.883.12-.054.242-.103.362-.16.28-.132.549-.27.828-.431.145-.082.25-.148.393-.245.127-.09.258-.172.38-.267.5-.365.97-.766 1.404-1.203.424-.45.825-.904 1.164-1.441l-.48-.335c-.361.428-.776.847-1.21 1.22a11.86 11.86 0 01-1.37 1.043c-.118.08-.244.15-.365.226L9.49 9.4c-.24.133-.503.262-.763.379-.298.135-.607.259-.916.375.054-.551.12-1.104.218-1.646.143-.78.326-1.56.62-2.258a7.864 7.864 0 011.18-1.988 6.879 6.879 0 011.713-1.514 5.804 5.804 0 012.124-.782c.746-.121 1.54-.102 2.313 0 1.542.2 3.025.85 4.066 1.977 1.056 1.115 1.63 2.632 1.86 4.189.128.796.14 1.535.029 2.33-.108.793-.237 1.637-.257 2.47-.043.837.02 1.7.16 2.517.068.412.15.818.23 1.218.039.197.086.407.109.583.02.163.015.319-.026.45-.08.25-.307.38-.651.384-.33.005-.72-.12-1.13-.208a5.224 5.224 0 00-1.66-.146c1.566-1.956 2.205-4.953 2.447-6.577l-.58-.086c-.354 2.394-1.603 7.96-5.511 7.96-1.423 0-2.531-.545-3.394-1.362v-.001zm-1.783.227c-.268.034-.558.07-.864.11-.267.033-.566.032-.763-.045-.19-.073-.275-.196-.311-.486-.03-.277.019-.618.082-.958.063-.343.147-.694.205-1.064a7.12 7.12 0 00.07-1.092c.002-.706-.114-1.355-.18-1.872L7.96 11.11c.078-.03.16-.058.238-.09.193 1.365.84 4.647 2.748 6.737l-1.06.135zm13.982 6.974c-.094-.255-.161-.515-.28-.761a5.178 5.178 0 00-.373-.725c-.13-.238-.307-.451-.47-.667a5.41 5.41 0 00-.577-.576 4.697 4.697 0 00-1.384-.821c-.128-.043-.252-.09-.384-.122a3.196 3.196 0 00-.411-.085l-.21-.03-.101.199-.002.004a2.3 2.3 0 01-.388.512 3.801 3.801 0 01-.516.445 4.99 4.99 0 01-.595.354c-.211.098-.421.199-.646.268-.44.162-.908.25-1.376.325-.236.02-.462.054-.705.066-.241.006-.504.022-.725.018a10.44 10.44 0 01-1.428-.11 7.535 7.535 0 01-1.375-.342 5.584 5.584 0 01-1.246-.63 4.477 4.477 0 01-.397-.312 5.18 5.18 0 00.43-.24 8.463 8.463 0 001.243-.927 10.142 10.142 0 001.296-1.397c.547.19 1.148.3 1.816.3.547 0 1.047-.092 1.503-.26.136.177.346.442.61.744l.173.2c.264.307.472.55.912.888l.357-.463c-.392-.302-.565-.502-.826-.806l-.176-.204a13.356 13.356 0 01-.503-.61c.323-.173.622-.386.898-.63.708-.225 1.46-.176 2.213.018.386.086.78.236 1.274.248.24.002.505-.038.754-.174.25-.133.446-.384.536-.642.088-.258.096-.52.07-.761-.027-.23-.07-.42-.106-.625-.075-.402-.15-.798-.207-1.195-.122-.797-.175-1.573-.112-2.37.045-.802.16-1.577.283-2.403a8.476 8.476 0 00-.01-2.554 10.13 10.13 0 00-.661-2.462 7.38 7.38 0 00-1.385-2.182 6.933 6.933 0 00-2.093-1.538 8.459 8.459 0 00-2.47-.73c-.843-.116-1.701-.146-2.572-.014a6.73 6.73 0 00-2.454.886 7.813 7.813 0 00-1.956 1.705 8.831 8.831 0 00-1.331 2.204c-.344.809-.538 1.632-.695 2.456-.15.828-.26 1.645-.31 2.494l-.04.709.64-.217.116 1.23c.057.554.148 1.152.13 1.798a6.465 6.465 0 01-.088.979c-.061.328-.153.675-.23 1.037-.075.364-.151.74-.123 1.17.017.215.067.452.2.674.134.223.358.39.57.478.435.172.813.15 1.155.127l.867-.084 1.79-.172-.005-.048c.194.148.4.282.615.404l-.082.124a9.489 9.489 0 01-.888 1.11c-.352.38-.743.72-1.055.948a4.207 4.207 0 01-.385.26l-.114.072c-.046-.06-.095-.12-.128-.173l-.11-.38-.195-.168h-.006c-.16 0-.284.258-.42.299-.13.04-.26.186-.385.238-.252.103-.495.279-.725.423a5.28 5.28 0 00-.66.504c-.106.086-.21.187-.304.285-.095.096-.2.193-.287.296a6.795 6.795 0 00-.512.637c-.168.215-.3.452-.443.683-.14.233-.256.492-.383.74L5 25.517l1.23.432.21-.726c.082-.21.146-.425.242-.638.099-.211.188-.431.31-.63.108-.21.24-.4.372-.593.064-.098.143-.183.214-.276a2.74 2.74 0 01.23-.263c.157-.173.33-.33.513-.475a4.169 4.169 0 01.889-.546c.048-.022.1-.042.149-.061.119.158.24.299.377.433.188.187.395.347.609.496a6.063 6.063 0 001.38.698c.483.175.982.29 1.484.37.502.078 1.008.109 1.512.117.27.003.498-.013.75-.018.248-.012.509-.048.763-.071.503-.08 1.006-.175 1.49-.353.246-.077.482-.188.716-.297a4.452 4.452 0 001.272-.917c.133-.14.25-.29.36-.458.046.015.092.03.136.05.106.039.208.092.31.139a4.064 4.064 0 011.076.816c.156.16.287.344.417.524.11.195.237.378.319.588.1.199.169.414.237.627.075.21.104.44.159.657.034.224.055.452.085.676l1.249-.17c-.064-.262-.12-.524-.191-.782z"></path>
    </g>
  </symbol>

  <symbol fill="none" xmlns="http://www.w3.org/2000/svg" viewBox="0 0 23 13" id="hamburger">
    <path fill-rule="evenodd" clip-rule="evenodd" d="M0 .894S5.333.465 10.667.23C12 .174 13.333.013 14.583 0c1.25.002 2.25.099 3.25.23 2 .238 3.167.664 3.167.664v.19s-1.167.426-3.167.664c-1 .131-2.083.229-3.333.23-1.25-.013-2.542-.174-3.875-.23A330.7 330.7 0 010 1.084v-.19zm1 4.893s1.333-.318 3.333-.543c2-.252 4.667-.403 7.334-.406 2.666.001 5.333.15 7.333.404 2 .226 3.333.545 3.333.545S21 6.106 19 6.332c-2 .254-4.667.403-7.333.404C9 6.733 6.333 6.582 4.333 6.33 2.333 6.105 1 5.787 1 5.787z" fill="#000"></path>
    <mask id="a" maskUnits="userSpaceOnUse" x="0" y="10" width="21" height="3">
      <path fill-rule="evenodd" clip-rule="evenodd" d="M21 12.574H0v-1.978h21v1.978z" fill="#fff"></path>
    </mask>
    <g mask="url(#a)">
      <path fill-rule="evenodd" clip-rule="evenodd" d="M21 11.68s-5.167.429-10.5.664c-1.333.056-2.583.217-3.833.23a26.134 26.134 0 01-3.375-.23C1.292 12.106 0 11.68 0 11.68v-.19s1.333-.426 3.333-.664c1-.131 2.167-.23 3.417-.23 1.25.013 2.417.174 3.75.23 5.333.235 10.5.664 10.5.664v.19z" fill="#000"></path>
    </g>
  </symbol>

   <symbol fill="none" xmlns="http://www.w3.org/2000/svg" viewBox="0 0 20 17" id="like-two">
    <path fill-rule="evenodd" clip-rule="evenodd" d="M6.624 3.085l-.021-.002.022-.009-.001.01zm7.48-1.17c-.544-.326-1.32-.558-1.952-.471-1.275.177-1.78 1.814-2.492 2.993-.038-.06.161-.331.104-.365.073-.15-.517-.563-.668-.725-.24-.26-.497-.535-.769-.805-.028-.158-.122-.298-.293-.344a5.51 5.51 0 01-.094-.026C7.203 1.496 6.366.917 5.435.802c-.865-.109-1.553.133-2.127.59-.11-.068-.25-.085-.41.005a1.912 1.912 0 00-.688.641 2.503 2.503 0 00-.674.936c-.174.432-.191.867-.187 1.3a6.329 6.329 0 00-.152 1.316c-.237.136-.367.438-.122.71 2.082 2.329 5.205 3.576 6.86 6.322.576.957.629 3.157 1.605 2.625.625-.339 1.852-1.701 2.335-2.212.42-.446 4.519-3.853 5.069-5.628 1.049-3.387-2.195-5.104-2.84-5.491z" fill="#F08B98"></path>
    <path fill-rule="evenodd" clip-rule="evenodd" d="M8.878 5.377a11.978 11.978 0 011.912-3.153c.418-.46.873-.908 1.43-1.239.545-.338 1.176-.6 1.847-.633.66-.079 1.359.104 1.91.318a4.716 4.716 0 011.627 1.138c.435.488.8 1.043 1.027 1.65.256.598.375 1.239.441 1.878.035.64.02 1.291-.135 1.919a6.578 6.578 0 01-.671 1.81 6.887 6.887 0 01-1.178 1.516c-.416.428-.904.918-1.365 1.306-1.888 1.563-3.94 2.393-6.094 4.06h-.002l-.373.131-.2-.418a9.155 9.155 0 00-.798-1.27c-.3-.405-.633-.793-.988-1.148a9.964 9.964 0 00-1.126-.995 9.144 9.144 0 00-1.261-.805c-.463-.249-.941-.506-1.399-.821a9.03 9.03 0 01-1.29-1.03C1.396 8.827.727 7.839.474 6.712a5.432 5.432 0 01-.12-1.699c.01-.14.034-.279.05-.418.014-.08.012-.115.037-.232l.047-.191c.047-.244.151-.529.26-.81.237-.524.517-1.019.904-1.44.369-.432.82-.8 1.331-1.064C3.481.564 4.064.45 4.631.382c.574-.008 1.15.054 1.675.257.265.094.525.196.759.344.242.134.484.267.693.442.453.31.828.7 1.216 1.07l-.336.333c-.39-.33-.764-.68-1.197-.94-.202-.152-.428-.258-.651-.365a3.27 3.27 0 00-.686-.267c-.463-.162-.947-.187-1.418-.168-.464.08-.932.181-1.334.444-.41.234-.781.545-1.083.918-.32.357-.55.796-.734 1.225-.075.212-.157.417-.205.69l-.043.192-.017.157-.038.363a5.06 5.06 0 00.122 1.424c.21.929.762 1.756 1.468 2.436.724.691 1.551 1.213 2.48 1.695.484.262.958.544 1.39.882.438.33.853.69 1.228 1.087.376.395.726.815 1.04 1.26a9.8 9.8 0 01.851 1.432l-.573-.18h.002c1.029-.833 2.047-1.221 3.031-1.883.991-.654 1.96-1.35 2.863-2.107.457-.387.876-.754 1.297-1.186a5.95 5.95 0 001.027-1.32 5.623 5.623 0 00.574-1.556c.138-.542.141-1.106.131-1.662-.047-.552-.134-1.11-.343-1.623-.18-.526-.48-.995-.83-1.411a4.002 4.002 0 00-1.274-.95c-.555-.227-1.054-.364-1.596-.318-.534.01-1.056.212-1.533.491-.488.27-.905.672-1.309 1.08-.787.842-1.442 1.85-1.939 2.904l-.46-.195z" fill="#181716"></path>
  </symbol>

  <symbol fill="none" xmlns="http://www.w3.org/2000/svg" viewBox="0 0 24 19" id="basket_two">
    <path fill-rule="evenodd" clip-rule="evenodd" d="M12.474 6.41l-10.21-.035-.808.413s-.172 1.064.665 3.48l2.162 6.244s-.852 1.564 3.84 1.564 9.46-.458 10.226-1.707c.767-1.249 2.64-7.38 2.895-8.036.256-.656-.413-1.89-1.447-1.923-1.035-.035-7.323 0-7.323 0z" fill="#B4E0F1"></path>
    <path fill-rule="evenodd" clip-rule="evenodd" d="M18.449 17.968l3.364-8.376c.24-.616.54-1.309.762-1.933a.822.822 0 00-.192-.718.7.7 0 00-.321-.202.782.782 0 00-.192-.025l-.292.002-4.902.018-10.654.041-2.717.01-.676.003c-.216 0-.502-.006-.54.033-.249.075-.439.357-.443.64-.016.217.22.721.344 1.117l.438 1.238.86 2.43 1.628 4.598c.144.43.2.577.402.693a.545.545 0 00.302.073l.554-.002 2.122-.008 9.068-.034v1.02l-9.068-.034-2.122-.008-.554-.003a1.486 1.486 0 01-.774-.205 1.539 1.539 0 01-.563-.578c-.145-.28-.163-.42-.238-.613l-1.593-4.61-.84-2.437-.43-1.241-.216-.626C.904 8.056.783 7.74.802 7.436c.017-.602.404-1.203 1.026-1.402.392-.114.57-.057.8-.07l.677.002 2.717.01 10.654.042 4.902.018.292.002c.124.001.256.018.379.053.249.072.468.217.633.4.33.373.455.867.332 1.353-.272.747-.544 1.348-.8 1.99l-3.428 8.35-.537-.216z" fill="#000"></path>
    <path fill-rule="evenodd" clip-rule="evenodd" d="M17.83 9.38h-.005l-11.858.472a.117.117 0 00-.095.051.119.119 0 00-.02.105l.252.871a.122.122 0 00.118.089h11.132a.123.123 0 00.116-.081l.477-1.344a.12.12 0 00-.017-.113.122.122 0 00-.1-.05zm-.476 2.185H6.222a.723.723 0 01-.695-.522l-.25-.871a.718.718 0 01.666-.916l11.859-.472a.718.718 0 01.71.959l-.477 1.342a.723.723 0 01-.681.48zm-.817 3.52c.06.002.11-.036.123-.095l.289-1.221a.12.12 0 00-.024-.104.12.12 0 00-.097-.047l-9.674.069a.123.123 0 00-.119.156l.249.863a.12.12 0 00.114.088l9.139.291zm.004.597h-.023l-9.139-.29a.72.72 0 01-.672-.522l-.249-.863a.719.719 0 01.69-.917l9.675-.068c.25-.03.432.098.57.27a.71.71 0 01.14.614l-.288 1.221a.725.725 0 01-.704.555zM5.254 6.136s.586-.708 1.51-1.729a71.132 71.132 0 011.624-1.71c.308-.304.63-.615.972-.923.172-.154.344-.308.536-.458l.142-.113.036-.028.044-.032.07-.05c.11-.073.24-.153.382-.208.143-.058.326-.109.541-.082a.964.964 0 01.523.251c.06.053.108.104.15.15l.03.033.034.04.013.017c.015.02.033.04.07.103.117.203.14.382.135.559-.048.686-.52 1.072-.787 1.361a36.669 36.669 0 01-1.691 1.646c-.503.473-.944.843-1.248 1.106-.306.262-.488.404-.488.404l-.328-.35L9.1 4.471l1.6-1.697c.132-.147.315-.331.39-.446.094-.134.156-.297.155-.403.004-.047-.02-.098-.015-.091.012.012-.006-.013-.026-.038l-.013-.016-.007-.008a.319.319 0 00.016.019l-.003-.003-.026-.03a1.547 1.547 0 00-.09-.094c-.053-.047-.068-.05-.08-.052a.279.279 0 00-.13.026c-.072.027-.14.066-.221.118l-.071.048a1.108 1.108 0 00-.026.018l-.032.025-.127.097c-.17.13-.34.276-.505.419-.333.29-.653.591-.961.883a68.587 68.587 0 00-1.684 1.618L5.608 6.46l-.354-.324zm13.108.469l-1.636-1.186a76.65 76.65 0 00-1.684-1.197l-.957-.66-.497-.329-.252-.16c-.074-.047-.198-.125-.195-.112a.317.317 0 00-.27.028c-.04.013-.228.227-.274.296a.304.304 0 00-.015.26.373.373 0 00.138.173l.114.081c.625.431 1.198.85 1.69 1.208a60.21 60.21 0 011.622 1.214l-.272.394s-.695-.418-1.713-1.083c-.51-.33-1.105-.716-1.731-1.146l-.12-.08a1.092 1.092 0 01-.402-.493 1.027 1.027 0 01.116-.993l.046-.06.11-.13a1.17 1.17 0 01.315-.274c.267-.159.607-.188.901-.077.196.08.234.128.332.185l.258.169.504.342c.33.228.652.457.96.683.612.457 1.173.895 1.652 1.273.947.768 1.56 1.3 1.56 1.3l-.3.374z" fill="#000"></path>
  </symbol>

   <symbol fill="none" xmlns="http://www.w3.org/2000/svg" viewBox="0 0 17 22" id="user_two">
    <path fill-rule="evenodd" clip-rule="evenodd" d="M13.289 7.514l-.01.216h.037c-.039-1.667-.374-3.844-1.547-4.995-1.334-1.31-2.913-1.672-3.661-1.672h-.352l-2.16.792-2.337 1.817L2.206 6.65l-.248 1.907.248.591.333 2.133-.295 2.369-.038.433 1.396-.129 1.36.063-.762-1.178-.817-2.095-.4-2.12 1.883-1.08 1.432-1.197 1.693.546 2.031-.573.938-.833 1.266 1.19 1.063.838zm-.035 1.882h-.11l-.076.817-.685 2.21-1.114 2.102s1.393-.346 1.84-.346c.446 0 .872.046.558-.794-.32-.858-.45-3.155-.413-3.989z" fill="#F6CEA9"></path>
    <path fill-rule="evenodd" clip-rule="evenodd" d="M7.475 7.348a6.311 6.311 0 001.61-.298 5.513 5.513 0 001.004-.45c.33-.18.63-.41.889-.65.032-.025.058-.055.087-.083.04.066.086.139.139.217.199.304.495.69.847 1.024.348.34.75.623 1.072.796.16.09.299.153.399.192l.154.066.182-.453-.134-.065a2.754 2.754 0 01-.343-.186 4.49 4.49 0 01-.918-.756 5.46 5.46 0 01-.93-1.361c.028-.038.056-.077.081-.114.08-.118.166-.226.217-.32.05-.095.096-.177.133-.245l.115-.214-.423-.242-.125.207-.145.238c-.055.092-.13.17-.202.267a2.154 2.154 0 01-.26.297c-.102.1-.2.213-.326.304-.237.198-.51.389-.807.532-.29.155-.607.262-.903.35a5.451 5.451 0 01-.834.16c-.495.06-.822.025-.805.027l-.049.763.079.002c.046 0 .114-.001.196-.005z" fill="#000"></path>
    <mask id="a" maskUnits="userSpaceOnUse" x="0" y="0" width="17" height="22">
      <path fill-rule="evenodd" clip-rule="evenodd" d="M16.049.833v20.79H.167V.834h15.882z" fill="#fff"></path>
    </mask>
    <g mask="url(#a)">
      <path fill-rule="evenodd" clip-rule="evenodd" d="M5.725 14.72c-1.764-1.67-2.296-4.7-2.429-5.735.1-.045.202-.086.302-.133a9.59 9.59 0 00.69-.36c.12-.068.208-.123.327-.204.106-.075.215-.143.318-.222a9.734 9.734 0 001.169-1.003c.353-.374.687-.753.97-1.2l-.4-.28a9.222 9.222 0 01-1.008 1.018c-.362.315-.741.61-1.142.868-.098.067-.203.125-.304.188l-.31.177c-.2.11-.42.218-.636.316-.248.112-.506.216-.763.312.045-.459.1-.92.181-1.371.12-.65.272-1.3.517-1.882a6.554 6.554 0 01.984-1.657 5.734 5.734 0 011.427-1.261 4.837 4.837 0 011.77-.652c.621-.1 1.283-.085 1.927 0 1.285.167 2.521.708 3.389 1.647.88.93 1.359 2.194 1.55 3.491.106.664.116 1.28.024 1.943-.09.66-.198 1.363-.215 2.058a9.58 9.58 0 00.135 2.097c.056.343.124.681.191 1.015.032.164.071.339.09.486a.893.893 0 01-.021.375c-.066.209-.256.316-.543.32-.274.004-.6-.1-.941-.174a4.354 4.354 0 00-1.383-.121c1.304-1.63 1.837-4.128 2.038-5.481l-.482-.072c-.296 1.995-1.337 6.633-4.593 6.633-1.186 0-2.11-.454-2.829-1.135zm-1.486.19l-.72.091c-.223.028-.472.027-.636-.037-.159-.06-.23-.163-.26-.405-.024-.23.016-.515.069-.798.052-.286.122-.579.17-.887a5.85 5.85 0 00.06-.91c0-.588-.096-1.13-.151-1.56-.06-.49-.107-.884-.137-1.146.065-.025.133-.048.198-.074.16 1.137.7 3.872 2.29 5.613l-.883.113zm11.651 5.81c-.078-.212-.134-.429-.232-.634a4.314 4.314 0 00-.312-.604c-.107-.198-.256-.376-.392-.556a4.502 4.502 0 00-.48-.48 3.91 3.91 0 00-1.153-.684c-.107-.036-.21-.074-.32-.102a2.66 2.66 0 00-.343-.07l-.175-.025-.085.165-.001.004a1.893 1.893 0 01-.324.426 3.163 3.163 0 01-.43.371c-.157.11-.322.208-.495.295-.176.082-.351.166-.539.224-.366.135-.756.209-1.146.27-.197.018-.385.045-.588.055-.2.005-.42.019-.604.015-.4-.006-.798-.03-1.19-.091a6.274 6.274 0 01-1.146-.285 4.63 4.63 0 01-1.038-.524 3.745 3.745 0 01-.331-.261c.093-.045.215-.111.36-.2a7.017 7.017 0 001.034-.773 8.449 8.449 0 001.08-1.164c.456.158.957.25 1.514.25.455 0 .872-.077 1.252-.217.113.148.288.369.508.62l.145.167c.22.256.393.458.76.74l.297-.386a3.979 3.979 0 01-.688-.671l-.147-.17c-.17-.195-.313-.371-.42-.508a3.98 3.98 0 00.75-.526c.59-.187 1.216-.146 1.843.015.322.072.651.197 1.062.207.2.002.42-.032.628-.145a.989.989 0 00.447-.535c.073-.215.08-.433.058-.634-.022-.192-.058-.35-.088-.521a24.152 24.152 0 01-.172-.996 8.495 8.495 0 01-.094-1.975c.038-.668.134-1.314.236-2.002.107-.686.1-1.446-.008-2.129a8.448 8.448 0 00-.551-2.051 6.151 6.151 0 00-1.154-1.819 5.778 5.778 0 00-1.745-1.281A7.049 7.049 0 009.416.918C8.713.821 7.998.796 7.272.906c-.72.111-1.423.36-2.045.738a6.511 6.511 0 00-1.63 1.42 7.36 7.36 0 00-1.11 1.837c-.286.675-.448 1.36-.578 2.047-.125.69-.217 1.37-.258 2.078l-.034.591.534-.18.096 1.024c.047.462.123.96.108 1.499-.007.27-.024.546-.073.816-.051.273-.128.562-.192.864-.062.303-.126.617-.102.976.014.178.056.375.167.56.111.186.298.326.474.399.363.143.678.126.963.106l.722-.07 1.492-.144-.004-.04c.162.124.333.235.512.337l-.068.103a7.897 7.897 0 01-.74.925c-.293.317-.62.6-.88.79-.127.097-.24.17-.32.218l-.095.059c-.038-.05-.08-.1-.107-.144l-.09-.316-.164-.14h-.005c-.133 0-.236.214-.349.248-.11.034-.217.155-.322.199-.21.085-.412.232-.604.352-.192.12-.379.272-.55.42a2.832 2.832 0 00-.253.238c-.08.08-.166.16-.24.246-.148.17-.298.344-.426.531-.14.18-.25.377-.37.57-.116.193-.212.41-.318.616l-.247.585 1.026.36.174-.605c.068-.175.122-.354.202-.532.082-.176.156-.359.258-.525.09-.174.2-.333.31-.494.053-.082.12-.152.178-.23a2.52 2.52 0 01.192-.22 3.73 3.73 0 01.428-.395 3.474 3.474 0 01.74-.455c.04-.018.084-.035.125-.05a3.292 3.292 0 00.821.773 5.042 5.042 0 001.15.582c.403.146.819.242 1.237.308.418.065.84.091 1.26.098.225.002.415-.01.625-.015.207-.01.424-.04.636-.06.419-.066.838-.145 1.242-.293.204-.065.401-.157.596-.248.194-.097.38-.21.56-.333.176-.131.348-.269.5-.431a2.74 2.74 0 00.3-.382c.038.013.077.026.113.042.089.032.174.077.26.116a3.386 3.386 0 01.895.68c.13.134.24.286.348.436.092.163.197.315.266.49.083.166.14.345.197.523.063.175.087.367.133.547.028.187.045.377.07.564l1.041-.142c-.053-.218-.1-.437-.159-.652z" fill="#000"></path>
    </g>
  </symbol>
</svg>